<svg width="1372" height="1024" viewBox="0 0 1372 1024" fill="none" xmlns="http://www.w3.org/2000/svg">
<path d="M91.0101 848.11C84.9311 834.004 78.2898 823.307 71.0864 816.017C63.8396 808.627 55.8716 804.415 47.1826 803.381C38.4501 802.246 28.5927 804.045 17.6103 808.778C4.31054 814.51 -5.62109 822.374 -12.1846 832.371C-18.7915 842.267 -21.7992 854.554 -21.2077 869.233C-20.5589 883.767 -16.066 900.707 -7.72902 920.052L23.0788 991.539C32.1106 1012.5 42.132 1027.71 53.1431 1037.18C64.2983 1046.71 75.9845 1051.65 88.2017 1052C100.563 1052.41 114.099 1049.44 128.809 1043.1C139.691 1038.41 149.562 1032.9 158.424 1026.58C167.386 1020.2 175.929 1013 184.052 1004.96L193.648 1026.81C185.51 1035.09 176.867 1042.34 167.717 1048.55C158.567 1054.77 148.35 1060.31 137.065 1065.17C117.72 1073.51 99.9292 1077.41 83.6923 1076.88C67.4989 1076.45 52.3958 1070.24 38.3832 1058.24C24.3705 1046.24 11.7845 1027.29 0.625027 1001.39L-29.5315 931.419C-39.9962 907.137 -45.5571 885.64 -46.2144 866.928C-46.7708 848.172 -42.4957 832.172 -33.3888 818.929C-24.282 805.686 -10.4087 795.048 8.23119 787.015C24.4529 780.024 39.0988 777.415 52.1688 779.19C65.2961 780.82 77.2515 787.077 88.0349 797.961C98.8183 808.845 108.726 824.765 117.758 845.722L158.661 940.634C160.832 945.672 162.719 949.219 164.323 951.276C165.882 953.232 167.577 954.115 169.406 953.924C171.192 953.632 173.423 952.432 176.098 950.323L185.086 971.18C182.112 975.09 178.106 978.131 173.068 980.302C167.93 982.516 163.306 983.015 159.198 981.799C155.09 980.583 151.476 978.019 148.356 974.106C145.337 970.151 142.496 964.805 139.831 958.068L138.622 958.589L91.0101 848.11ZM33.5135 925.933C26.6528 910.014 22.779 896.451 21.892 885.245C21.1057 873.995 22.8235 864.952 27.0451 858.115C31.3675 851.234 37.7604 845.97 46.2239 842.323C51.4632 840.065 56.3733 838.845 60.9541 838.663C65.4915 838.38 69.8143 838.846 73.9225 840.063C78.0308 841.279 82.5437 843.157 87.4613 845.697L92.751 843.417L103.498 868.354C95.9801 862.276 89.1803 858.695 83.0987 857.612C76.9736 856.429 70.8381 857.162 64.692 859.811C58.6466 862.416 54.3392 866.005 51.7697 870.576C49.301 875.105 48.6726 881.409 49.8846 889.488C51.0966 897.568 54.4599 908.006 59.9745 920.802L67.4648 938.182C73.1965 951.482 78.6192 961.57 83.7329 968.445C88.8031 975.221 93.897 979.417 99.0144 981.034C104.233 982.609 109.965 982.05 116.212 979.357C122.157 976.796 126.752 972.904 129.997 967.682C133.343 962.417 135.452 954.698 136.325 944.526L147.202 969.765L141.912 972.045C140.469 977.565 138.828 982.215 136.992 985.993C135.156 989.771 132.548 993.284 129.169 996.532C125.934 999.838 121.647 1002.64 116.307 1004.94C107.44 1008.76 99.0075 1009.71 91.0081 1007.78C82.9654 1005.75 75.1608 1000.39 67.5944 991.708C60.028 983.022 52.7277 970.518 45.6933 954.195L33.5135 925.933Z" fill="#0F1013"/>
<path d="M1040.54 3.04984L1029.77 -81.8438L1062.28 -83.9498L1062.55 1.62457L1040.54 3.04984ZM1047.42 -7.94998L1125.23 -43.994L1137.24 -13.9323L1055.5 12.4708L1047.42 -7.94998ZM1060.15 -4.81688L1118.98 58.1639L1094.12 79.0697L1043.09 9.31643L1060.15 -4.81688ZM1060.83 8.16771L1019.23 83.9199L991.871 66.3964L1042.09 -3.64688L1060.83 8.16771ZM1048.93 12.8962L964.47 -2.74287L972.499 -34.1022L1054.31 -8.39671L1048.93 12.8962ZM1343.12 98.5645C1340.84 110.916 1336.25 121.493 1329.34 130.296C1322.54 138.983 1313.91 145.753 1303.45 150.609C1292.98 155.355 1281.23 158.15 1268.2 158.993C1251.34 160.085 1236.35 157.703 1223.21 151.847C1210.18 145.875 1199.74 136.491 1191.87 123.698C1184 110.794 1179.45 94.8174 1178.21 75.767C1176.97 56.6071 1179.48 40.2277 1185.75 26.6286C1192.12 13.0224 1201.5 2.51992 1213.89 -4.87881C1226.38 -12.2846 1241.22 -16.5442 1258.41 -17.6574C1272.43 -18.5651 1285.1 -17.1873 1296.45 -13.5241C1307.79 -9.86085 1317.14 -3.76018 1324.51 4.77795C1331.99 13.309 1336.87 24.0975 1339.14 37.1435L1308.6 41.7602C1305.93 29.3994 1300.24 20.4777 1291.53 14.9949C1282.92 9.39557 1272.16 7.01426 1259.24 7.85099C1241.83 8.97844 1228.99 15.1976 1220.7 26.5086C1212.41 37.7101 1208.92 53.4382 1210.24 73.6929C1211.14 87.707 1213.98 99.2871 1218.75 108.433C1223.63 117.573 1230.11 124.244 1238.19 128.449C1246.37 132.537 1255.88 134.229 1266.72 133.527C1279.09 132.726 1289.14 129.162 1296.87 122.834C1304.7 116.39 1309.99 107.362 1312.76 95.7484L1343.12 98.5645Z" fill="#0F1013"/>
</svg>
