<svg width="570" height="20" viewBox="0 0 570 20" fill="none" xmlns="http://www.w3.org/2000/svg">
<path d="M0 10H240" stroke="#FF4F18" stroke-opacity="0.16" stroke-width="2"/>
<path d="M283.847 10.416C283.847 11.228 283.693 11.9163 283.385 12.481C283.077 13.041 282.657 13.4633 282.125 13.748C281.593 14.028 280.998 14.168 280.34 14.168C279.682 14.168 279.087 14.028 278.555 13.748C278.028 13.4633 277.608 13.041 277.295 12.481C276.987 11.9163 276.833 11.228 276.833 10.416C276.833 9.60867 276.987 8.92033 277.295 8.351C277.608 7.78167 278.028 7.35467 278.555 7.07C279.087 6.78533 279.682 6.643 280.34 6.643C280.998 6.643 281.593 6.78533 282.125 7.07C282.657 7.35467 283.077 7.78167 283.385 8.351C283.693 8.91567 283.847 9.604 283.847 10.416ZM282.482 10.416C282.482 9.81867 282.391 9.31933 282.209 8.918C282.032 8.51667 281.782 8.218 281.46 8.022C281.143 7.826 280.769 7.728 280.34 7.728C279.911 7.728 279.535 7.826 279.213 8.022C278.891 8.218 278.639 8.51667 278.457 8.918C278.28 9.31933 278.191 9.81867 278.191 10.416C278.191 11.0087 278.28 11.5057 278.457 11.907C278.639 12.3037 278.889 12.6 279.206 12.796C279.528 12.9873 279.906 13.083 280.34 13.083C280.774 13.083 281.15 12.9873 281.467 12.796C281.784 12.6 282.032 12.3037 282.209 11.907C282.391 11.5057 282.482 11.0087 282.482 10.416ZM288.861 8.113H288.924V13.993H287.601V7.567L287.916 7.882H285.69V6.811H288.721L288.861 8.113ZM292.424 7.945C291.794 7.945 291.278 7.97067 290.877 8.022C290.48 8.06867 290.104 8.16667 289.75 8.316C289.4 8.46067 289.024 8.687 288.623 8.995V7.833H289.015C289.411 7.427 289.813 7.12833 290.219 6.937C290.625 6.741 291.129 6.643 291.731 6.643C291.983 6.643 292.214 6.664 292.424 6.706V7.945ZM285.69 12.929H291.472V14H285.69V12.929Z" fill="#FF4F18" fill-opacity="0.65"/>
<path d="M330 10H570" stroke="#FF4F18" stroke-opacity="0.16" stroke-width="2"/>
</svg>
