<svg width="40" height="40" viewBox="0 0 40 40" fill="none" xmlns="http://www.w3.org/2000/svg">
<path fill-rule="evenodd" clip-rule="evenodd" d="M20 40C31.0457 40 40 31.0457 40 20C40 8.9543 31.0457 0 20 0C8.9543 0 0 8.9543 0 20C0 31.0457 8.9543 40 20 40ZM25.7071 15.2929L20.7071 10.2929C20.3166 9.90237 19.6834 9.90237 19.2929 10.2929L14.2929 15.2929C13.9024 15.6834 13.9024 16.3166 14.2929 16.7071C14.6834 17.0976 15.3166 17.0976 15.7071 16.7071L19 13.4142V23C19 23.5523 19.4477 24 20 24C20.5523 24 21 23.5523 21 23V13.4142L24.2929 16.7071C24.6834 17.0976 25.3166 17.0976 25.7071 16.7071C26.0976 16.3166 26.0976 15.6834 25.7071 15.2929ZM12 23C12 22.4477 11.5523 22 11 22C10.4477 22 10 22.4477 10 23V27C10 27.7957 10.3161 28.5587 10.8787 29.1213C11.4413 29.6839 12.2044 30 13 30H27C27.7957 30 28.5587 29.6839 29.1213 29.1213C29.6839 28.5587 30 27.7957 30 27V23C30 22.4477 29.5523 22 29 22C28.4477 22 28 22.4477 28 23V27C28 27.2652 27.8946 27.5196 27.7071 27.7071C27.5196 27.8946 27.2652 28 27 28H13C12.7348 28 12.4804 27.8946 12.2929 27.7071C12.1054 27.5196 12 27.2652 12 27V23Z" fill="#FF4F18"/>
</svg>
