<svg width="120" height="120" viewBox="0 0 120 120" fill="none" xmlns="http://www.w3.org/2000/svg">
<path d="M60.5513 8.70096L59.8013 8.26795L59.0513 8.70096L15.75 33.701L15 34.134V35L15 85V85.866L15.75 86.299L59.0513 111.299L59.8013 111.732L60.5513 111.299L103.853 86.299L104.603 85.866V85V35V34.134L103.853 33.701L60.5513 8.70096Z" fill="#F2F4F7" stroke="#F2F4F7" stroke-width="3"/>
<path d="M16.5 35L59.8013 60L59.8013 110L16.5 85L16.5 35Z" fill="url(#paint0_linear_7778_447)"/>
<path d="M59.8013 60L103.103 35L103.103 85L59.8013 110L59.8013 60Z" fill="url(#paint1_linear_7778_447)"/>
<path d="M59.8013 10L103.103 35L59.8013 60L16.5 35L59.8013 10Z" fill="url(#paint2_linear_7778_447)"/>
<g style="mix-blend-mode:multiply" opacity="0.6">
<path d="M38 47.5L59.6506 60L59.6506 85L38 72.5L38 47.5Z" fill="#781D00" fill-opacity="0.65"/>
<rect width="25" height="25" transform="matrix(0.866025 -0.5 2.20305e-08 1 59.6506 60)" fill="#781D00" fill-opacity="0.65"/>
<path d="M59.6506 35L81.3013 47.5L59.6506 60L38 47.5L59.6506 35Z" fill="#781D00" fill-opacity="0.65"/>
</g>
<defs>
<linearGradient id="paint0_linear_7778_447" x1="40.4544" y1="99.25" x2="40.4544" y2="49" gradientUnits="userSpaceOnUse">
<stop stop-color="#F9A186"/>
<stop offset="1" stop-color="#FF4F18"/>
</linearGradient>
<linearGradient id="paint1_linear_7778_447" x1="81.4519" y1="48" x2="81.4519" y2="98" gradientUnits="userSpaceOnUse">
<stop stop-color="#FF4F18"/>
<stop offset="1" stop-color="#F9A186"/>
</linearGradient>
<linearGradient id="paint2_linear_7778_447" x1="59.75" y1="10" x2="40.5764" y2="51.0429" gradientUnits="userSpaceOnUse">
<stop stop-color="#F9A186"/>
<stop offset="1" stop-color="#FF4F18"/>
</linearGradient>
</defs>
</svg>
