<svg width="89" height="44" viewBox="0 0 89 44" fill="none" xmlns="http://www.w3.org/2000/svg">
<path d="M9.20462 4.27976H9.51574V18H4.53788V4.52865L5.23789 5.22866H1.0067V1.16859H8.92462L9.20462 4.27976ZM16.7492 5.77312C15.5151 5.77312 14.4573 5.80423 13.5758 5.86645C12.6943 5.9183 11.8595 6.03238 11.0713 6.20868C10.2935 6.37461 9.53648 6.61832 8.80017 6.9398V3.71975H9.76463C10.4595 2.7138 11.2113 1.97749 12.0202 1.51082C12.8291 1.03377 13.8506 0.795251 15.0847 0.795251C15.6966 0.795251 16.2514 0.86266 16.7492 0.997477V5.77312ZM1.0067 13.9399H14.1669V18H1.0067V13.9399ZM19.5062 9.53763C19.5062 7.59833 19.8744 5.97534 20.6107 4.66865C21.347 3.36196 22.3685 2.39232 23.6752 1.75971C24.9923 1.11674 26.5167 0.795251 28.2486 0.795251C29.8872 0.795251 31.2768 1.08563 32.4176 1.66638C33.5687 2.23676 34.4398 3.10788 35.0309 4.27976C35.6324 5.45163 35.9332 6.91906 35.9332 8.68206V10.3776H23.473V7.54648H31.6864L31.0798 8.09094V7.49981C31.0798 6.54572 30.8153 5.81978 30.2864 5.322C29.7679 4.82421 29.042 4.57532 28.1086 4.57532C26.999 4.57532 26.1226 4.96421 25.4797 5.74201C24.8367 6.50943 24.5152 7.77463 24.5152 9.53763C24.5152 11.1762 24.8108 12.4258 25.4019 13.2866C25.993 14.1473 26.8745 14.5777 28.0464 14.5777C28.7308 14.5777 29.3323 14.4273 29.8509 14.1266C30.3694 13.8259 30.7738 13.3695 31.0642 12.7577L35.9021 13.411C35.4976 14.614 34.8806 15.5888 34.0509 16.3355C33.2317 17.0718 32.3035 17.5955 31.2664 17.9067C30.2398 18.2178 29.1612 18.3733 28.0308 18.3733C26.3404 18.3733 24.8523 18.0415 23.5663 17.3778C22.2907 16.7141 21.2952 15.7237 20.5796 14.4066C19.864 13.0792 19.5062 11.4562 19.5062 9.53763ZM40.0747 6.53535H54.386V9.08651H40.0747V6.53535ZM16.267 38.131C15.9766 39.2822 15.4788 40.2518 14.7736 41.04C14.0788 41.8178 13.2232 42.4037 12.2069 42.7978C11.1906 43.1815 10.0654 43.3733 8.83129 43.3733C7.23422 43.3733 5.83419 43.057 4.63121 42.4244C3.4386 41.7815 2.51043 40.8326 1.84672 39.5777C1.183 38.3125 0.851144 36.7777 0.851144 34.9732C0.851144 33.1583 1.18819 31.6287 1.86227 30.3842C2.54673 29.1398 3.49563 28.2064 4.70899 27.5842C5.93272 26.9619 7.35867 26.6508 8.98684 26.6508C10.3143 26.6508 11.5017 26.8582 12.5491 27.2731C13.5966 27.6879 14.4418 28.3205 15.0847 29.1709C15.7381 30.0213 16.1322 31.0687 16.267 32.3131L13.358 32.562C13.1817 31.3798 12.6995 30.5035 11.9113 29.9331C11.1335 29.3524 10.1328 29.062 8.90906 29.062C7.26015 29.062 6.01049 29.5701 5.16011 30.5864C4.30972 31.5924 3.88453 33.0546 3.88453 34.9732C3.88453 36.3006 4.08157 37.4103 4.47565 38.3021C4.8801 39.194 5.45048 39.8629 6.18679 40.3088C6.93347 40.7444 7.82016 40.9622 8.84684 40.9622C10.0187 40.9622 10.9884 40.6874 11.7558 40.1377C12.5336 39.5777 13.0884 38.7584 13.4203 37.6799L16.267 38.131ZM35.731 35.0354C35.731 36.8399 35.3887 38.3695 34.7043 39.6244C34.0198 40.8689 33.0865 41.8074 31.9042 42.44C30.722 43.0622 29.3997 43.3733 27.9375 43.3733C26.4752 43.3733 25.153 43.0622 23.9708 42.44C22.7989 41.8074 21.8655 40.8689 21.1707 39.6244C20.4862 38.3695 20.144 36.8399 20.144 35.0354C20.144 33.2413 20.4862 31.7117 21.1707 30.4464C21.8655 29.1812 22.7989 28.2323 23.9708 27.5997C25.153 26.9671 26.4752 26.6508 27.9375 26.6508C29.3997 26.6508 30.722 26.9671 31.9042 27.5997C33.0865 28.2323 34.0198 29.1812 34.7043 30.4464C35.3887 31.7013 35.731 33.2309 35.731 35.0354ZM32.6976 35.0354C32.6976 33.708 32.4953 32.5983 32.0909 31.7065C31.6968 30.8146 31.142 30.1509 30.4264 29.7153C29.7212 29.2798 28.8916 29.062 27.9375 29.062C26.9834 29.062 26.1486 29.2798 25.433 29.7153C24.7174 30.1509 24.1574 30.8146 23.753 31.7065C23.3589 32.5983 23.1619 33.708 23.1619 35.0354C23.1619 36.3525 23.3589 37.4569 23.753 38.3488C24.1574 39.2303 24.7122 39.8888 25.4174 40.3244C26.133 40.7496 26.973 40.9622 27.9375 40.9622C28.902 40.9622 29.7368 40.7496 30.442 40.3244C31.1472 39.8888 31.6968 39.2303 32.0909 38.3488C32.4953 37.4569 32.6976 36.3525 32.6976 35.0354ZM50.9949 19.1996H53.9349V43H51.446L51.1193 40.1222H50.9949V19.1996ZM39.4369 35.051C39.4369 33.3191 39.6858 31.8257 40.1836 30.5709C40.6917 29.3057 41.4229 28.336 42.3769 27.662C43.3414 26.9879 44.4925 26.6508 45.8303 26.6508C46.94 26.6508 47.9045 26.8738 48.7237 27.3197C49.543 27.7657 50.2326 28.3723 50.7927 29.1398H51.4927V31.5198C50.7875 30.6694 50.0563 30.0627 49.2993 29.6998C48.5526 29.3264 47.7696 29.1398 46.9504 29.1398C45.9859 29.1398 45.1718 29.3575 44.5081 29.7931C43.8444 30.2287 43.3362 30.8872 42.9836 31.7687C42.6414 32.6398 42.4703 33.7339 42.4703 35.051C42.4703 36.3369 42.6362 37.4103 42.9681 38.271C43.3103 39.1318 43.8081 39.7851 44.4614 40.2311C45.1251 40.6666 45.9392 40.8844 46.9037 40.8844C47.7333 40.8844 48.5215 40.7029 49.2682 40.34C50.0149 39.977 50.7564 39.3703 51.4927 38.5199V40.9H50.8082C50.1756 41.6674 49.4393 42.2741 48.5993 42.72C47.7696 43.1659 46.8052 43.3889 45.7059 43.3889C44.3681 43.3889 43.2325 43.0519 42.2992 42.3778C41.3658 41.6933 40.6554 40.7288 40.168 39.4844C39.6806 38.2295 39.4369 36.7517 39.4369 35.051ZM58.7298 34.9887C58.7298 33.2154 59.0616 31.7065 59.7253 30.462C60.3994 29.2072 61.3483 28.2583 62.5721 27.6153C63.7958 26.9723 65.2269 26.6508 66.8655 26.6508C68.3796 26.6508 69.6707 26.9153 70.7389 27.4442C71.807 27.9627 72.6211 28.7509 73.1811 29.8087C73.7515 30.8665 74.0367 32.168 74.0367 33.7132V35.1132H60.9854V33.1532H71.9367L71.1589 33.8221V33.1843C71.1589 31.805 70.7596 30.7731 69.9611 30.0887C69.1625 29.4042 68.0996 29.062 66.7721 29.062C65.1751 29.062 63.9358 29.5701 63.0543 30.5864C62.1832 31.5924 61.7476 33.0598 61.7476 34.9887C61.7476 36.9488 62.1832 38.437 63.0543 39.4533C63.9254 40.4592 65.1647 40.9622 66.7721 40.9622C67.8092 40.9622 68.6959 40.7444 69.4322 40.3088C70.1685 39.8733 70.7285 39.2096 71.1122 38.3177L73.9745 38.7999C73.6115 39.7851 73.0878 40.62 72.4033 41.3044C71.7293 41.9889 70.9152 42.5074 69.9611 42.86C69.007 43.2022 67.9388 43.3733 66.7566 43.3733C65.1491 43.3733 63.7439 43.0519 62.5409 42.4089C61.338 41.7659 60.3994 40.817 59.7253 39.5622C59.0616 38.3073 58.7298 36.7829 58.7298 34.9887ZM85.785 43.5445C85.2561 43.5445 84.7739 43.4304 84.3383 43.2022C83.9027 42.9741 83.5553 42.6474 83.2961 42.2222C83.0368 41.797 82.9072 41.2992 82.9072 40.7288C82.9072 40.1585 83.0368 39.6659 83.2961 39.251C83.5553 38.8259 83.9027 38.5044 84.3383 38.2866C84.7739 38.0584 85.2561 37.9444 85.785 37.9444C86.3243 37.9444 86.8117 38.0584 87.2473 38.2866C87.6828 38.5044 88.025 38.8259 88.2739 39.251C88.5332 39.6659 88.6628 40.1585 88.6628 40.7288C88.6628 41.2992 88.5332 41.797 88.2739 42.2222C88.025 42.6474 87.6828 42.9741 87.2473 43.2022C86.8117 43.4304 86.3243 43.5445 85.785 43.5445Z" fill="#FF4F18"/>
</svg>
